<svg width="1129" height="663" viewBox="0 0 1129 663" xmlns="http://www.w3.org/2000/svg">
  <title>Focus on What Matters</title>
  <circle cx="321" cy="321" r="321" fill="#f2f2f2"/>
  <ellipse cx="559" cy="635.49998" rx="514" ry="27.50002" fill="#3f3d56"/>
  <ellipse cx="558" cy="627" rx="460" ry="22" opacity="0.2"/>
  <rect x="131" y="152.5" width="840" height="50" fill="#3f3d56"/>
  <path d="M166.5,727.3299A21.67009,21.67009,0,0,0,188.1701,749H984.8299A21.67009,21.67009,0,0,0,1006.5,727.3299V296h-840Z" transform="translate(-35.5 -118.5)" fill="#3f3d56"/>
  <path d="M984.8299,236H188.1701A21.67009,21.67009,0,0,0,166.5,257.6701V296h840V257.6701A21.67009,21.67009,0,0,0,984.8299,236Z" transform="translate(-35.5 -118.5)" fill="#3f3d56"/>
  <path d="M984.8299,236H188.1701A21.67009,21.67009,0,0,0,166.5,257.6701V296h840V257.6701A21.67009,21.67009,0,0,0,984.8299,236Z" transform="translate(-35.5 -118.5)" opacity="0.2"/>
  <circle cx="181" cy="147.5" r="13" fill="#3f3d56"/>
  <circle cx="217" cy="147.5" r="13" fill="#3f3d56"/>
  <circle cx="253" cy="147.5" r="13" fill="#3f3d56"/>
  <rect x="168" y="213.5" width="337" height="386" rx="5.33505" fill="#606060"/>
  <rect x="603" y="272.5" width="284" height="22" rx="5.47638" fill="#2e8555"/>
  <rect x="537" y="352.5" width="416" height="15" rx="5.47638" fill="#2e8555"/>
  <rect x="537" y="396.5" width="416" height="15" rx="5.47638" fill="#2e8555"/>
  <rect x="537" y="440.5" width="416" height="15" rx="5.47638" fill="#2e8555"/>
  <rect x="537" y="484.5" width="416" height="15" rx="5.47638" fill="#2e8555"/>
  <rect x="865" y="552.5" width="88" height="26" rx="7.02756" fill="#3ecc5f"/>
  <path d="M1088.60287,624.61594a30.11371,30.11371,0,0,0,3.98291-15.266c0-13.79652-8.54358-24.98081-19.08256-24.98081s-19.08256,11.18429-19.08256,24.98081a30.11411,30.11411,0,0,0,3.98291,15.266,31.248,31.248,0,0,0,0,30.53213,31.248,31.248,0,0,0,0,30.53208,31.248,31.248,0,0,0,0,30.53208,30.11408,30.11408,0,0,0-3.98291,15.266c0,13.79652,8.54353,24.98081,19.08256,24.98081s19.08256-11.18429,19.08256-24.98081a30.11368,30.11368,0,0,0-3.98291-15.266,31.248,31.248,0,0,0,0-30.53208,31.248,31.248,0,0,0,0-30.53208,31.248,31.248,0,0,0,0-30.53213Z" transform="translate(-35.5 -118.5)" fill="#3f3d56"/>
  <ellipse cx="1038.00321" cy="460.31783" rx="19.08256" ry="24.9808" fill="#3f3d56"/>
  <ellipse cx="1038.00321" cy="429.78574" rx="19.08256" ry="24.9808" fill="#3f3d56"/>
  <path d="M1144.93871,339.34489a91.61081,91.61081,0,0,0,7.10658-10.46092l-50.141-8.23491,54.22885.4033a91.566,91.566,0,0,0,1.74556-72.42605l-72.75449,37.74139,67.09658-49.32086a91.41255,91.41255,0,1,0-150.971,102.29805,91.45842,91.45842,0,0,0-10.42451,16.66946l65.0866,33.81447-69.40046-23.292a91.46011,91.46011,0,0,0,14.73837,85.83669,91.40575,91.40575,0,1,0,143.68892,0,91.41808,91.41808,0,0,0,0-113.02862Z" transform="translate(-35.5 -118.5)" fill="#3ecc5f" fill-rule="evenodd"/>
  <path d="M981.6885,395.8592a91.01343,91.01343,0,0,0,19.56129,56.51431,91.40575,91.40575,0,1,0,143.68892,0C1157.18982,436.82067,981.6885,385.60008,981.6885,395.8592Z" transform="translate(-35.5 -118.5)" opacity="0.1"/>
  <g id="SVGRepo_bgCarrier" stroke-width="0" transform="matrix(0.64976, 0, 0, 0.64976, 162.958618, 240.272217)" style=""/>
  <rect x="163.426" y="16.363" transform="matrix(-0.707107, -0.707107, 0.707107, -0.707107, 453.045837, 438.496124)" style="fill: rgb(127, 186, 0);" width="45.341" height="45.341"/>
  <rect x="289.766" y="346.244" style="fill: rgb(255, 185, 0);" width="118.583" height="41.853"/>
  <ellipse style="fill: rgb(239, 239, 239);" cx="349.066" cy="456.109" rx="43.596" ry="33.134"/>
  <rect x="314.181" y="524.118" style="fill: rgb(242, 80, 34);" width="69.754" height="41.853"/>
  <rect x="206.064" y="346.244" style="fill: rgb(0, 164, 239);" width="41.853" height="41.853"/>
  <path style="fill: rgb(115, 115, 115);" d="M 452.53 272.333 L 384.012 272.333 L 353.994 242.315 C 351.27 239.592 346.852 239.592 344.128 242.315 L 312.069 274.376 C 309.345 277.1 309.345 281.516 312.069 284.242 L 342.086 314.258 L 342.086 339.271 L 289.77 339.271 C 285.918 339.271 282.794 342.393 282.794 346.245 L 282.794 360.197 L 254.892 360.197 L 254.892 346.245 C 254.892 342.393 251.77 339.271 247.918 339.271 L 206.064 339.271 C 202.212 339.271 199.089 342.393 199.089 346.245 L 199.089 388.099 C 199.089 391.95 202.212 395.074 206.064 395.074 L 219.549 395.074 L 219.549 456.02 C 219.549 459.872 222.672 462.995 226.525 462.995 L 288.535 462.995 L 281.814 469.717 C 279.09 472.441 279.09 476.858 281.814 479.582 C 283.176 480.945 284.961 481.624 286.746 481.624 C 288.531 481.624 290.316 480.943 291.678 479.582 L 301.464 469.796 C 304.06 475.534 308.3 480.751 314.012 485.091 C 321.764 490.984 331.547 494.696 342.085 495.837 L 342.085 517.145 L 314.183 517.145 C 310.33 517.145 307.208 520.268 307.208 524.119 L 307.208 565.972 C 307.208 569.826 310.33 572.948 314.183 572.948 L 383.938 572.948 C 387.79 572.948 390.913 569.826 390.913 565.972 L 390.913 524.119 C 390.913 520.268 387.791 517.145 383.938 517.145 L 356.036 517.145 L 356.036 495.837 C 366.574 494.696 376.355 490.984 384.109 485.091 C 389.827 480.745 394.071 475.52 396.665 469.776 L 406.472 479.581 C 407.834 480.943 409.619 481.624 411.404 481.624 C 413.188 481.624 414.975 480.942 416.337 479.581 C 419.06 476.857 419.06 472.441 416.337 469.717 L 409.614 462.995 L 452.53 462.995 C 456.383 462.995 459.506 459.871 459.506 456.02 L 459.506 279.308 C 459.507 275.457 456.384 272.333 452.53 272.333 Z M 376.963 558.999 L 321.16 558.999 L 321.16 531.097 L 376.963 531.097 L 376.963 558.999 Z M 349.062 257.113 L 371.258 279.309 L 349.062 301.504 L 326.865 279.309 L 349.062 257.113 Z M 296.745 353.222 L 401.378 353.222 L 401.378 381.123 L 296.745 381.123 L 296.745 353.222 Z M 213.04 353.222 L 240.942 353.222 L 240.942 381.123 L 213.04 381.123 L 213.04 353.222 Z M 233.5 395.075 L 247.917 395.075 C 251.77 395.075 254.892 391.952 254.892 388.1 L 254.892 374.148 L 282.794 374.148 L 282.794 388.1 C 282.794 391.952 285.917 395.075 289.77 395.075 L 342.085 395.075 L 342.085 416.382 C 331.548 417.522 321.766 421.236 314.012 427.128 C 308.342 431.438 304.119 436.61 301.519 442.298 L 291.68 432.458 C 288.955 429.734 284.538 429.734 281.815 432.458 C 279.091 435.182 279.091 439.6 281.815 442.323 L 288.536 449.045 L 233.5 449.045 L 233.5 395.075 Z M 349.062 482.268 C 328.869 482.268 312.441 470.534 312.441 456.111 C 312.441 441.686 328.869 429.953 349.062 429.953 C 369.254 429.953 385.682 441.686 385.682 456.111 C 385.683 470.534 369.256 482.268 349.062 482.268 Z M 445.556 449.045 L 409.614 449.045 L 416.338 442.323 C 419.061 439.6 419.061 435.183 416.338 432.458 C 413.614 429.735 409.197 429.735 406.472 432.458 L 396.612 442.318 C 394.014 436.623 389.787 431.442 384.109 427.128 C 376.356 421.236 366.575 417.522 356.036 416.382 L 356.036 395.075 L 408.352 395.075 C 412.205 395.075 415.328 391.952 415.328 388.1 L 415.328 346.247 C 415.328 342.395 412.205 339.272 408.352 339.272 L 356.036 339.272 L 356.036 314.259 L 384.012 286.285 L 445.556 286.285 L 445.556 449.045 Z"/>
</svg>
