<svg width="1041.277" height="554.141" viewBox="0 0 1041.277 554.141" xmlns="http://www.w3.org/2000/svg">
  <title>Powered by Laravel</title>
  <g id="Group_24" data-name="Group 24" transform="translate(-440 -263)">
    <g id="Group_23" data-name="Group 23" transform="translate(439.989 262.965)">
      <path id="Path_299" data-name="Path 299" d="M1040.82,611.12q-1.74,3.75-3.47,7.4-2.7,5.67-5.33,11.12c-.78,1.61-1.56,3.19-2.32,4.77-8.6,17.57-16.63,33.11-23.45,45.89A73.21,73.21,0,0,1,942.44,719l-151.65,1.65h-1.6l-13,.14-11.12.12-34.1.37h-1.38l-17.36.19h-.53l-107,1.16-95.51,1-11.11.12-69,.75H429l-44.75.48h-.48l-141.5,1.53-42.33.46a87.991,87.991,0,0,1-10.79-.54h0c-1.22-.14-2.44-.3-3.65-.49a87.38,87.38,0,0,1-51.29-27.54C116,678.37,102.75,655,93.85,629.64q-1.93-5.49-3.6-11.12C59.44,514.37,97,380,164.6,290.08q4.25-5.64,8.64-11l.07-.08c20.79-25.52,44.1-46.84,68.93-62,44-26.91,92.75-34.49,140.7-11.9,40.57,19.12,78.45,28.11,115.17,30.55,3.71.24,7.42.42,11.11.53,84.23,2.65,163.17-27.7,255.87-47.29,3.69-.78,7.39-1.55,11.12-2.28,66.13-13.16,139.49-20.1,226.73-5.51a189.089,189.089,0,0,1,26.76,6.4q5.77,1.86,11.12,4c41.64,16.94,64.35,48.24,74,87.46q1.37,5.46,2.37,11.11C1134.3,384.41,1084.19,518.23,1040.82,611.12Z" transform="translate(-79.34 -172.91)" fill="#f2f2f2"/>
      <path id="Path_300" data-name="Path 300" d="M576.36,618.52a95.21,95.21,0,0,1-1.87,11.12h93.7V618.52Zm-78.25,62.81,11.11-.09V653.77c-3.81-.17-7.52-.34-11.11-.52ZM265.19,618.52v11.12h198.5V618.52ZM1114.87,279h-74V191.51q-5.35-2.17-11.12-4V279H776.21V186.58c-3.73.73-7.43,1.5-11.12,2.28V279H509.22V236.15c-3.69-.11-7.4-.29-11.11-.53V279H242.24V217c-24.83,15.16-48.14,36.48-68.93,62h-.07v.08q-4.4,5.4-8.64,11h8.64V618.52h-83q1.66,5.63,3.6,11.12h79.39v93.62a87,87,0,0,0,12.2,2.79c1.21.19,2.43.35,3.65.49h0a87.991,87.991,0,0,0,10.79.54l42.33-.46v-97H498.11v94.21l11.11-.12V629.64H765.09V721l11.12-.12V629.64H1029.7v4.77c.76-1.58,1.54-3.16,2.32-4.77q2.63-5.45,5.33-11.12,1.73-3.64,3.47-7.4v-321h76.42Q1116.23,284.43,1114.87,279ZM242.24,618.52V290.08H498.11V618.52Zm267,0V290.08H765.09V618.52Zm520.48,0H776.21V290.08H1029.7Z" transform="translate(-79.34 -172.91)" opacity="0.1"/>
      <path id="Path_301" data-name="Path 301" d="M863.09,533.65v13l-151.92,1.4-1.62.03-57.74.53-1.38.02-17.55.15h-.52l-106.98.99L349.77,551.4h-.15l-44.65.42-.48.01-198.4,1.82v-15l46.65-28,93.6-.78,2-.01.66-.01,2-.03,44.94-.37,2.01-.01.64-.01,2-.01L315,509.3l.38-.01,35.55-.3h.29l277.4-2.34,6.79-.05h.68l5.18-.05,37.65-.31,2-.03,1.85-.02h.96l11.71-.09,2.32-.03,3.11-.02,9.75-.09,15.47-.13,2-.02,3.48-.02h.65l74.71-.64Z" fill="#65617d"/>
      <path id="Path_302" data-name="Path 302" d="M863.09,533.65v13l-151.92,1.4-1.62.03-57.74.53-1.38.02-17.55.15h-.52l-106.98.99L349.77,551.4h-.15l-44.65.42-.48.01-198.4,1.82v-15l46.65-28,93.6-.78,2-.01.66-.01,2-.03,44.94-.37,2.01-.01.64-.01,2-.01L315,509.3l.38-.01,35.55-.3h.29l277.4-2.34,6.79-.05h.68l5.18-.05,37.65-.31,2-.03,1.85-.02h.96l11.71-.09,2.32-.03,3.11-.02,9.75-.09,15.47-.13,2-.02,3.48-.02h.65l74.71-.64Z" opacity="0.2"/>
      <path id="Path_303" data-name="Path 303" d="M375.44,656.57v24.49a6.13,6.13,0,0,1-3.5,5.54,6,6,0,0,1-2.5.6l-34.9.74a6,6,0,0,1-2.7-.57,6.12,6.12,0,0,1-3.57-5.57V656.57Z" transform="translate(-79.34 -172.91)" fill="#3f3d56"/>
      <path id="Path_304" data-name="Path 304" d="M375.44,656.57v24.49a6.13,6.13,0,0,1-3.5,5.54,6,6,0,0,1-2.5.6l-34.9.74a6,6,0,0,1-2.7-.57,6.12,6.12,0,0,1-3.57-5.57V656.57Z" transform="translate(-79.34 -172.91)" opacity="0.1"/>
      <path id="Path_305" data-name="Path 305" d="M377.44,656.57v24.49a6.13,6.13,0,0,1-3.5,5.54,6,6,0,0,1-2.5.6l-34.9.74a6,6,0,0,1-2.7-.57,6.12,6.12,0,0,1-3.57-5.57V656.57Z" transform="translate(-79.34 -172.91)" fill="#3f3d56"/>
      <rect id="Rectangle_137" data-name="Rectangle 137" width="47.17" height="31.5" transform="translate(680.92 483.65)" fill="#3f3d56"/>
      <rect id="Rectangle_138" data-name="Rectangle 138" width="47.17" height="31.5" transform="translate(680.92 483.65)" opacity="0.1"/>
      <rect id="Rectangle_139" data-name="Rectangle 139" width="47.17" height="31.5" transform="translate(678.92 483.65)" fill="#3f3d56"/>
      <path id="Path_306" data-name="Path 306" d="M298.09,483.65v4.97l-47.17,1.26v-6.23Z" opacity="0.1"/>
      <path id="Path_307" data-name="Path 307" d="M460.69,485.27v168.2a4,4,0,0,1-3.85,3.95l-191.65,5.1h-.05a4,4,0,0,1-3.95-3.95V485.27a4,4,0,0,1,3.95-3.95h191.6a4,4,0,0,1,3.95,3.95Z" transform="translate(-79.34 -172.91)" fill="#65617d"/>
      <path id="Path_308" data-name="Path 308" d="M265.19,481.32v181.2h-.05a4,4,0,0,1-3.95-3.95V485.27a4,4,0,0,1,3.95-3.95Z" transform="translate(-79.34 -172.91)" opacity="0.1"/>
      <path id="Path_309" data-name="Path 309" d="M194.59,319.15h177.5V467.4l-177.5,4Z" fill="#39374d"/>
      <path id="Path_310" data-name="Path 310" d="M726.09,483.65v6.41l-47.17-1.26v-5.15Z" opacity="0.1"/>
      <path id="Path_311" data-name="Path 311" d="M867.69,485.27v173.3a4,4,0,0,1-4,3.95h0L672,657.42a4,4,0,0,1-3.85-3.95V485.27a4,4,0,0,1,3.95-3.95H863.7a4,4,0,0,1,3.99,3.95Z" transform="translate(-79.34 -172.91)" fill="#65617d"/>
      <path id="Path_312" data-name="Path 312" d="M867.69,485.27v173.3a4,4,0,0,1-4,3.95h0V481.32h0a4,4,0,0,1,4,3.95Z" transform="translate(-79.34 -172.91)" opacity="0.1"/>
      <path id="Path_313" data-name="Path 313" d="M775.59,319.15H598.09V467.4l177.5,4Z" fill="#39374d"/>
      <path id="Path_314" data-name="Path 314" d="M663.19,485.27v168.2a4,4,0,0,1-3.85,3.95l-191.65,5.1h0a4,4,0,0,1-4-3.95V485.27a4,4,0,0,1,3.95-3.95h191.6A4,4,0,0,1,663.19,485.27Z" transform="translate(-79.34 -172.91)" fill="#65617d"/>
      <path id="Path_315" data-name="Path 315" d="M397.09,319.15h177.5V467.4l-177.5,4Z" fill="#4267b2"/>
      <path id="Path_316" data-name="Path 316" d="M863.09,533.65v13l-151.92,1.4-1.62.03-57.74.53-1.38.02-17.55.15h-.52l-106.98.99L349.77,551.4h-.15l-44.65.42-.48.01-198.4,1.82v-15l202.51-1.33h.48l40.99-.28h.19l283.08-1.87h.29l.17-.01h.47l4.79-.03h1.46l74.49-.5,4.4-.02.98-.01Z" opacity="0.1"/>
      <circle id="Ellipse_111" data-name="Ellipse 111" cx="51.33" cy="51.33" r="51.33" transform="translate(435.93 246.82)" fill="#fbbebe"/>
      <path id="Path_317" data-name="Path 317" d="M617.94,550.07s-99.5,12-90,0c3.44-4.34,4.39-17.2,4.2-31.85-.06-4.45-.22-9.06-.45-13.65-1.1-22-3.75-43.5-3.75-43.5s87-41,77-8.5c-4,13.13-2.69,31.57.35,48.88.89,5.05,1.92,10,3,14.7a344.66,344.66,0,0,0,9.65,33.92Z" transform="translate(-79.34 -172.91)" fill="#fbbebe"/>
      <path id="Path_318" data-name="Path 318" d="M585.47,546c11.51-2.13,23.7-6,34.53-1.54,2.85,1.17,5.47,2.88,8.39,3.86s6.12,1.22,9.16,1.91c10.68,2.42,19.34,10.55,24.9,20s8.44,20.14,11.26,30.72l6.9,25.83c6,22.45,12,45.09,13.39,68.3a2437.506,2437.506,0,0,1-250.84,1.43c5.44-10.34,11-21.31,10.54-33s-7.19-23.22-4.76-34.74c1.55-7.34,6.57-13.39,9.64-20.22,8.75-19.52,1.94-45.79,17.32-60.65,6.92-6.68,17-9.21,26.63-8.89,12.28.41,24.85,4.24,37,6.11C555.09,547.48,569.79,548.88,585.47,546Z" transform="translate(-79.34 -172.91)" fill="#ff6584"/>
      <path id="Path_319" data-name="Path 319" d="M716.37,657.17l-.1,1.43v.1l-.17,2.3-1.33,18.51-1.61,22.3-.46,6.28-1,13.44v.17l-107,1-175.59,1.9v.84h-.14v-1.12l.45-14.36.86-28.06.74-23.79.07-2.37a10.53,10.53,0,0,1,11.42-10.17c4.72.4,10.85.89,18.18,1.41l3,.22c42.33,2.94,120.56,6.74,199.5,2,1.66-.09,3.33-.19,5-.31,12.24-.77,24.47-1.76,36.58-3a10.53,10.53,0,0,1,11.6,11.23Z" transform="translate(-79.34 -172.91)" opacity="0.1"/>
      <path id="Path_320" data-name="Path 320" d="M429.08,725.44v-.84l175.62-1.91,107-1h.3v-.17l1-13.44.43-6,1.64-22.61,1.29-17.9v-.44a10.617,10.617,0,0,0-.11-2.47.3.3,0,0,0,0-.1,10.391,10.391,0,0,0-2-4.64,10.54,10.54,0,0,0-9.42-4c-12.11,1.24-24.34,2.23-36.58,3-1.67.12-3.34.22-5,.31-78.94,4.69-157.17.89-199.5-2l-3-.22c-7.33-.52-13.46-1-18.18-1.41a10.54,10.54,0,0,0-11.24,8.53,11,11,0,0,0-.18,1.64l-.68,22.16L429.54,710l-.44,14.36v1.12Z" transform="translate(-79.34 -172.91)" fill="#3f3d56"/>
      <path id="Path_321" data-name="Path 321" d="M716.67,664.18l-1.23,15.33-1.83,22.85-.46,5.72-1,12.81-.06.64v.17h0l-.15,1.48.11-1.48h-.29l-107,1-175.65,1.9v-.28l.49-14.36,1-28.06.64-18.65A6.36,6.36,0,0,1,434.3,658a6.25,6.25,0,0,1,3.78-.9c2.1.17,4.68.37,7.69.59,4.89.36,10.92.78,17.94,1.22,13,.82,29.31,1.7,48,2.42,52,2,122.2,2.67,188.88-3.17,3-.26,6.1-.55,9.13-.84a6.26,6.26,0,0,1,3.48.66,5.159,5.159,0,0,1,.86.54,6.14,6.14,0,0,1,2,2.46,3.564,3.564,0,0,1,.25.61A6.279,6.279,0,0,1,716.67,664.18Z" transform="translate(-79.34 -172.91)" opacity="0.1"/>
      <path id="Path_322" data-name="Path 322" d="M377.44,677.87v3.19a6.13,6.13,0,0,1-3.5,5.54l-40.1.77a6.12,6.12,0,0,1-3.57-5.57v-3Z" transform="translate(-79.34 -172.91)" opacity="0.1"/>
      <path id="Path_323" data-name="Path 323" d="M298.59,515.57l-52.25,1V507.9l52.25-1Z" fill="#3f3d56"/>
      <path id="Path_324" data-name="Path 324" d="M298.59,515.57l-52.25,1V507.9l52.25-1Z" opacity="0.1"/>
      <path id="Path_325" data-name="Path 325" d="M300.59,515.57l-52.25,1V507.9l52.25-1Z" fill="#3f3d56"/>
      <path id="Path_326" data-name="Path 326" d="M758.56,679.87v3.19a6.13,6.13,0,0,0,3.5,5.54l40.1.77a6.12,6.12,0,0,0,3.57-5.57v-3Z" transform="translate(-79.34 -172.91)" opacity="0.1"/>
      <path id="Path_327" data-name="Path 327" d="M678.72,517.57l52.25,1V509.9l-52.25-1Z" opacity="0.1"/>
      <path id="Path_328" data-name="Path 328" d="M676.72,517.57l52.25,1V509.9l-52.25-1Z" fill="#3f3d56"/>
      <path id="Path_329" data-name="Path 329" d="M534.13,486.79c.08,7-3.16,13.6-5.91,20.07a163.491,163.491,0,0,0-12.66,74.71c.73,11,2.58,22,.73,32.9s-8.43,21.77-19,24.9c17.53,10.45,41.26,9.35,57.76-2.66,8.79-6.4,15.34-15.33,21.75-24.11a97.86,97.86,0,0,1-13.31,44.75A103.43,103.43,0,0,0,637,616.53c4.31-5.81,8.06-12.19,9.72-19.23,3.09-13-1.22-26.51-4.51-39.5a266.055,266.055,0,0,1-6.17-33c-.43-3.56-.78-7.22.1-10.7,1-4.07,3.67-7.51,5.64-11.22,5.6-10.54,5.73-23.3,2.86-34.88s-8.49-22.26-14.06-32.81c-4.46-8.46-9.3-17.31-17.46-22.28-5.1-3.1-11-4.39-16.88-5.64l-25.37-5.43c-5.55-1.19-11.26-2.38-16.87-1.51-9.47,1.48-16.14,8.32-22,15.34-4.59,5.46-15.81,15.71-16.6,22.86-.72,6.59,5.1,17.63,6.09,24.58,1.3,9,2.22,6,7.3,11.52C532,478.05,534.07,482,534.13,486.79Z" transform="translate(-79.34 -172.91)" fill="#3f3d56"/>
    </g>
    <g id="React-icon" transform="translate(906.3 541.56)">
      <path id="Path_330" data-name="Path 330" d="M263.668,117.179c0-5.827-7.3-11.35-18.487-14.775,2.582-11.4,1.434-20.477-3.622-23.382a7.861,7.861,0,0,0-4.016-1v4a4.152,4.152,0,0,1,2.044.466c2.439,1.4,3.5,6.724,2.672,13.574-.2,1.685-.52,3.461-.914,5.272a86.9,86.9,0,0,0-11.386-1.954,87.469,87.469,0,0,0-7.459-8.965c5.845-5.433,11.332-8.41,15.062-8.41V78h0c-4.931,0-11.386,3.514-17.913,9.611-6.527-6.061-12.982-9.539-17.913-9.539v4c3.712,0,9.216,2.959,15.062,8.356a84.687,84.687,0,0,0-7.405,8.947,83.732,83.732,0,0,0-11.4,1.972c-.412-1.793-.717-3.532-.932-5.2-.843-6.85.2-12.175,2.618-13.592a3.991,3.991,0,0,1,2.062-.466v-4h0a8,8,0,0,0-4.052,1c-5.039,2.9-6.168,11.96-3.568,23.328-11.153,3.443-18.415,8.947-18.415,14.757,0,5.828,7.3,11.35,18.487,14.775-2.582,11.4-1.434,20.477,3.622,23.382a7.882,7.882,0,0,0,4.034,1c4.931,0,11.386-3.514,17.913-9.611,6.527,6.061,12.982,9.539,17.913,9.539a8,8,0,0,0,4.052-1c5.039-2.9,6.168-11.96,3.568-23.328C256.406,128.511,263.668,122.988,263.668,117.179Zm-23.346-11.96c-.663,2.313-1.488,4.7-2.421,7.083-.735-1.434-1.506-2.869-2.349-4.3-.825-1.434-1.7-2.833-2.582-4.2C235.517,104.179,237.974,104.645,240.323,105.219Zm-8.212,19.1c-1.4,2.421-2.833,4.716-4.321,6.85-2.672.233-5.379.359-8.1.359-2.708,0-5.415-.126-8.069-.341q-2.232-3.2-4.339-6.814-2.044-3.523-3.73-7.136c1.112-2.4,2.367-4.805,3.712-7.154,1.4-2.421,2.833-4.716,4.321-6.85,2.672-.233,5.379-.359,8.1-.359,2.708,0,5.415.126,8.069.341q2.232,3.2,4.339,6.814,2.044,3.523,3.73,7.136C234.692,119.564,233.455,121.966,232.11,124.315Zm5.792-2.331c.968,2.4,1.793,4.805,2.474,7.136-2.349.574-4.823,1.058-7.387,1.434.879-1.381,1.757-2.8,2.582-4.25C236.4,124.871,237.167,123.419,237.9,121.984ZM219.72,141.116a73.921,73.921,0,0,1-4.985-5.738c1.614.072,3.263.126,4.931.126,1.685,0,3.353-.036,4.985-.126A69.993,69.993,0,0,1,219.72,141.116ZM206.38,130.555c-2.546-.377-5-.843-7.352-1.417.663-2.313,1.488-4.7,2.421-7.083.735,1.434,1.506,2.869,2.349,4.3S205.5,129.192,206.38,130.555ZM219.63,93.241a73.924,73.924,0,0,1,4.985,5.738c-1.614-.072-3.263-.126-4.931-.126-1.686,0-3.353.036-4.985.126A69.993,69.993,0,0,1,219.63,93.241ZM206.362,103.8c-.879,1.381-1.757,2.8-2.582,4.25-.825,1.434-1.6,2.869-2.331,4.3-.968-2.4-1.793-4.805-2.474-7.136C201.323,104.663,203.8,104.179,206.362,103.8Zm-16.227,22.449c-6.348-2.708-10.454-6.258-10.454-9.073s4.106-6.383,10.454-9.073c1.542-.663,3.228-1.255,4.967-1.811a86.122,86.122,0,0,0,4.034,10.92,84.9,84.9,0,0,0-3.981,10.866C193.38,127.525,191.694,126.915,190.134,126.252Zm9.647,25.623c-2.439-1.4-3.5-6.724-2.672-13.574.2-1.686.52-3.461.914-5.272a86.9,86.9,0,0,0,11.386,1.954,87.465,87.465,0,0,0,7.459,8.965c-5.845,5.433-11.332,8.41-15.062,8.41A4.279,4.279,0,0,1,199.781,151.875Zm42.532-13.663c.843,6.85-.2,12.175-2.618,13.592a3.99,3.99,0,0,1-2.062.466c-3.712,0-9.216-2.959-15.062-8.356a84.689,84.689,0,0,0,7.405-8.947,83.731,83.731,0,0,0,11.4-1.972A50.194,50.194,0,0,1,242.313,138.212Zm6.9-11.96c-1.542.663-3.228,1.255-4.967,1.811a86.12,86.12,0,0,0-4.034-10.92,84.9,84.9,0,0,0,3.981-10.866c1.775.556,3.461,1.165,5.039,1.829,6.348,2.708,10.454,6.258,10.454,9.073C259.67,119.994,255.564,123.562,249.216,126.252Z" fill="#61dafb"/>
      <path id="Path_331" data-name="Path 331" d="M320.8,78.4Z" transform="translate(-119.082 -0.328)" fill="#61dafb"/>
      <circle id="Ellipse_112" data-name="Ellipse 112" cx="8.194" cy="8.194" r="8.194" transform="translate(211.472 108.984)" fill="#61dafb"/>
      <path id="Path_332" data-name="Path 332" d="M520.5,78.1Z" transform="translate(-282.975 -0.082)" fill="#61dafb"/>
    </g>
  </g>
  <rect x="636.948" y="344.664" width="122.805" height="104.898" style="fill: rgb(57, 55, 77);"/>
  <path d="M 742.985 362.283 C 743.022 362.42 743.042 362.563 743.042 362.705 L 743.042 384.863 C 743.042 385.442 742.733 385.977 742.23 386.264 L 723.633 396.972 L 723.633 418.194 C 723.633 418.772 723.326 419.305 722.825 419.596 L 684.004 441.944 C 683.915 441.994 683.818 442.027 683.721 442.061 C 683.685 442.073 683.651 442.095 683.612 442.105 C 683.342 442.178 683.055 442.178 682.784 442.105 C 682.74 442.093 682.699 442.069 682.657 442.053 C 682.568 442.02 682.475 441.992 682.39 441.944 L 643.578 419.596 C 643.077 419.309 642.766 418.774 642.766 418.194 L 642.766 351.721 C 642.766 351.575 642.786 351.434 642.822 351.297 C 642.835 351.25 642.863 351.208 642.879 351.161 C 642.909 351.076 642.937 350.99 642.982 350.911 C 643.012 350.858 643.057 350.816 643.093 350.768 C 643.139 350.703 643.182 350.636 643.236 350.58 C 643.283 350.533 643.343 350.499 643.396 350.459 C 643.454 350.41 643.507 350.358 643.574 350.319 L 643.576 350.319 L 662.983 339.145 C 663.484 338.859 664.098 338.859 664.599 339.145 L 684.006 350.319 L 684.01 350.319 C 684.075 350.36 684.129 350.41 684.188 350.457 C 684.24 350.497 684.299 350.533 684.345 350.578 C 684.402 350.636 684.442 350.703 684.491 350.768 C 684.525 350.816 684.571 350.858 684.6 350.911 C 684.646 350.992 684.672 351.076 684.705 351.161 C 684.721 351.208 684.749 351.25 684.761 351.299 C 684.798 351.436 684.818 351.579 684.818 351.721 L 684.818 393.24 L 700.99 383.928 L 700.99 362.703 C 700.99 362.561 701.01 362.418 701.046 362.283 C 701.061 362.234 701.087 362.192 701.103 362.145 C 701.135 362.061 701.164 361.974 701.208 361.895 C 701.238 361.842 701.283 361.8 701.317 361.752 C 701.366 361.687 701.406 361.62 701.463 361.564 C 701.509 361.517 701.568 361.483 701.62 361.443 C 701.681 361.394 701.733 361.342 701.798 361.303 L 701.8 361.303 L 721.209 350.129 C 721.71 349.843 722.324 349.843 722.825 350.129 L 742.232 361.303 C 742.301 361.344 742.353 361.394 742.414 361.441 C 742.464 361.481 742.523 361.517 742.569 361.562 C 742.626 361.62 742.666 361.687 742.715 361.752 C 742.751 361.8 742.796 361.842 742.824 361.895 C 742.87 361.974 742.897 362.061 742.929 362.145 C 742.947 362.192 742.973 362.234 742.985 362.283 Z M 739.807 383.928 L 739.807 365.502 L 733.015 369.411 L 723.633 374.814 L 723.633 393.24 L 739.809 383.928 L 739.807 383.928 Z M 720.399 417.259 L 720.399 398.821 L 711.17 404.092 L 684.816 419.134 L 684.816 437.745 L 720.399 417.259 Z M 646.001 354.518 L 646.001 417.259 L 681.581 437.743 L 681.581 419.136 L 662.993 408.616 L 662.987 408.612 L 662.979 408.608 C 662.916 408.572 662.864 408.519 662.805 408.475 C 662.755 408.434 662.696 408.402 662.652 408.357 L 662.648 408.351 C 662.595 408.301 662.559 408.238 662.514 408.182 C 662.474 408.127 662.426 408.081 662.393 408.024 L 662.391 408.018 C 662.355 407.958 662.333 407.885 662.306 407.816 C 662.28 407.756 662.246 407.699 662.23 407.635 L 662.23 407.632 C 662.21 407.556 662.206 407.475 662.197 407.396 C 662.189 407.336 662.173 407.275 662.173 407.214 L 662.173 407.21 L 662.173 363.83 L 652.793 358.425 L 646.001 354.52 L 646.001 354.518 Z M 663.793 342.413 L 647.623 351.721 L 663.789 361.029 L 679.957 351.719 L 663.789 342.413 L 663.793 342.413 Z M 672.202 400.502 L 681.583 395.102 L 681.583 354.518 L 674.791 358.427 L 665.408 363.83 L 665.408 404.413 L 672.202 400.502 Z M 722.017 353.397 L 705.849 362.705 L 722.017 372.013 L 738.183 362.703 L 722.017 353.397 Z M 720.399 374.814 L 711.017 369.411 L 704.225 365.502 L 704.225 383.928 L 713.606 389.328 L 720.399 393.24 L 720.399 374.814 Z M 683.196 416.337 L 706.911 402.798 L 718.766 396.033 L 702.61 386.731 L 684.008 397.44 L 667.054 407.2 L 683.196 416.337 Z" fill="#FF2D20" fill-rule="evenodd" style=""/>
  <g id="SVGRepo_bgCarrier" stroke-width="0" transform="matrix(1, 0, 0, 1, 487.176878, -76.930767)"/>
  <rect x="62.341" y="6.242" transform="matrix(-0.707107, -0.707107, 0.707107, -0.707107, 326.63266, 404.928192)" style="fill: rgb(127, 186, 0);" width="17.296" height="17.296"/>
  <rect x="264.347" y="369.737" style="fill: rgb(255, 185, 0);" width="45.235" height="15.965"/>
  <ellipse style="fill: rgb(239, 239, 239);" cx="286.968" cy="411.647" rx="16.63" ry="12.64"/>
  <rect x="273.66" y="437.591" style="fill: rgb(242, 80, 34);" width="26.609" height="15.965"/>
  <rect x="232.418" y="369.737" style="fill: rgb(0, 164, 239);" width="15.965" height="15.965"/>
  <path style="fill: rgb(115, 115, 115);" d="M 326.436 341.543 L 300.299 341.543 L 288.847 330.092 C 287.808 329.054 286.124 329.054 285.084 330.092 L 272.855 342.322 C 271.816 343.361 271.816 345.046 272.855 346.085 L 284.305 357.536 L 284.305 367.077 L 264.349 367.077 C 262.879 367.077 261.688 368.268 261.688 369.738 L 261.688 375.06 L 251.044 375.06 L 251.044 369.738 C 251.044 368.268 249.853 367.077 248.383 367.077 L 232.417 367.077 C 230.948 367.077 229.757 368.268 229.757 369.738 L 229.757 385.703 C 229.757 387.173 230.948 388.364 232.417 388.364 L 237.562 388.364 L 237.562 411.613 C 237.562 413.083 238.754 414.274 240.223 414.274 L 263.878 414.274 L 261.313 416.839 C 260.275 417.877 260.274 419.562 261.313 420.601 C 261.833 421.121 262.514 421.381 263.195 421.381 C 263.876 421.381 264.557 421.121 265.076 420.601 L 268.809 416.868 C 269.799 419.057 271.418 421.047 273.596 422.703 C 276.553 424.95 280.285 426.367 284.305 426.802 L 284.305 434.93 L 273.661 434.93 C 272.192 434.93 271.001 436.121 271.001 437.591 L 271.001 453.556 C 271.001 455.026 272.192 456.217 273.661 456.217 L 300.27 456.217 C 301.74 456.217 302.931 455.026 302.931 453.556 L 302.931 437.591 C 302.931 436.121 301.74 434.93 300.27 434.93 L 289.627 434.93 L 289.627 426.802 C 293.646 426.367 297.378 424.95 300.335 422.703 C 302.517 421.045 304.136 419.052 305.126 416.86 L 308.866 420.601 C 309.386 421.121 310.067 421.38 310.748 421.38 C 311.429 421.38 312.109 421.12 312.629 420.601 C 313.668 419.562 313.668 417.877 312.629 416.838 L 310.065 414.274 L 326.436 414.274 C 327.906 414.274 329.097 413.082 329.097 411.613 L 329.097 344.204 C 329.098 342.735 327.906 341.543 326.436 341.543 Z M 297.61 450.896 L 276.323 450.896 L 276.323 440.252 L 297.61 440.252 L 297.61 450.896 Z M 286.966 335.737 L 295.433 344.204 L 286.966 352.671 L 278.499 344.204 L 286.966 335.737 Z M 267.009 372.399 L 306.923 372.399 L 306.923 383.043 L 267.009 383.043 L 267.009 372.399 Z M 235.079 372.399 L 245.722 372.399 L 245.722 383.043 L 235.079 383.043 L 235.079 372.399 Z M 242.884 388.365 L 248.383 388.365 C 249.852 388.365 251.044 387.174 251.044 385.704 L 251.044 380.382 L 261.688 380.382 L 261.688 385.704 C 261.688 387.174 262.879 388.365 264.348 388.365 L 284.305 388.365 L 284.305 396.493 C 280.285 396.928 276.554 398.345 273.596 400.592 C 271.434 402.236 269.822 404.209 268.83 406.379 L 265.077 402.626 C 264.038 401.586 262.353 401.586 261.314 402.626 C 260.275 403.664 260.275 405.349 261.314 406.389 L 263.878 408.953 L 242.884 408.953 L 242.884 388.365 Z M 286.966 421.626 C 279.263 421.626 272.996 417.15 272.996 411.648 C 272.996 406.146 279.263 401.669 286.966 401.669 C 294.669 401.669 300.936 406.146 300.936 411.648 C 300.936 417.15 294.67 421.626 286.966 421.626 Z M 323.775 408.953 L 310.065 408.953 L 312.63 406.389 C 313.668 405.349 313.668 403.665 312.63 402.626 C 311.591 401.586 309.906 401.586 308.866 402.626 L 305.105 406.387 C 304.113 404.214 302.502 402.238 300.335 400.592 C 297.378 398.345 293.647 396.928 289.627 396.493 L 289.627 388.365 L 309.584 388.365 C 311.053 388.365 312.245 387.174 312.245 385.704 L 312.245 369.739 C 312.245 368.269 311.053 367.078 309.584 367.078 L 289.627 367.078 L 289.627 357.537 L 300.299 346.865 L 323.775 346.865 L 323.775 408.953 Z"/>
</svg>
